<svg data-v-0dd9719b="" version="1.0" xmlns="http://www.w3.org/2000/svg" xmlns:xlink="http://www.w3.org/1999/xlink" width="800" height="588" viewBox="0 0 340.000000 250.000000" preserveAspectRatio="xMidYMid meet" color-interpolation-filters="sRGB" style="">   <g data-v-0dd9719b="" fill="#F0A1A8" class="basesvg" transform="translate(69.34677124023438,89.64999771118164)"><g data-gra="path-name" fill-rule="" class="tp-name"><g transform="scale(1)"><g><path d="M33.3-1.2C46-1.2 45.7-4.3 45.7-15.8 45.7-17.7 45.7-19.4 45.9-21.3 47.7-35.1 64.7-56.8 64.7-66.3 64.7-71.1 57.5-71.1 54.1-71.1 50.9-71.1 47.9-71 45.8-68.3 43.2-65.1 39.2-47.4 35.5-47.4 33-47.4 27.3-66.6 24.2-69.6 22.8-71 20.4-71.2 18.5-71.2 15.6-71.2 6-70.8 6-66.6 6-55.1 25.3-35.4 25.3-17.5 25.3-15.2 25.1-12.9 25.1-10.5 25.1-4.6 26.9-1.2 33.3-1.2ZM87.8-1.9C101.9-1.9 87.5-14.8 104.6-14.8 125.4-14.8 110.3-1.8 122.2-1.8 127.1-1.8 135.6-1.8 135.6-8.7 135.6-18.5 121.5-60.5 115.4-68 112.6-71.4 110.2-71.9 106-71.9 103.3-71.9 101.3-71.9 99-70.3 91.4-65.2 76.5-19.4 76.5-9.6 76.5-1.5 81.4-1.9 87.8-1.9ZM105.2-29.2C102.9-29.2 100.8-29.7 100.8-32.4 100.8-34.6 103.8-49.8 105.8-49.8 108.2-49.8 110.8-34.8 110.8-32.5 110.8-30.4 109.3-29.2 107.3-29.2ZM162.9-71.2C159.6-71.2 156-71.2 153.3-69.2 152.3-68.5 151.6-67.5 151-66.5 147.9-60.8 147.9-41.2 147.9-34.1 147.9-27.9 147.8-5.4 154.6-2.7 156.8-1.8 160.2-1.7 162.6-1.7 168.3-1.7 168.6-5.6 168.6-10.2 168.6-13.8 168-17.3 168-20.7 168-27.4 170.4-30.2 177.1-30.2 182.1-30.2 186.6-29.9 186.6-23.7 186.6-20.1 186.1-16.5 186.1-12.9 186.1-9 186.4-1.7 191.7-1.7 194.9-1.7 199.1-1.8 201.8-3.8 202.8-4.5 203.5-5.4 204.1-6.4 206.9-11.6 207.3-27.3 207.3-33.5 207.3-41.4 207.7-63.6 202.2-69.1 200.5-70.9 194.5-71.2 192.1-71.2 187.4-71.2 186.4-68.2 186.4-64 186.4-60.3 187.2-56.7 187.2-53 187.2-46.4 183.5-44.7 177.6-44.7 168.7-44.7 168.4-47.4 168.4-55.4 168.4-57.9 168.8-60.4 168.8-62.9 168.8-67.2 168-71.2 162.9-71.2Z" transform="translate(-6, 71.9000015258789)"></path></g> <!----> <!----> <!----> <!----> <!----> <!----> <!----></g></g> <!----></g><defs v-gra="od"></defs></svg>